<svg height="2318" width="720" xmlns="http://www.w3.org/2000/svg">
<rect height="2318" fill="#555" width="720"></rect>
<text fill="#7f7" font-family="Courier New" font-size="12" xml:space="preserve">
<tspan x="10" y="26"></tspan>
<tspan x="10" y="42">&gt; npmdoc-gulp-livereload@0.0.1 test /home/travis/build/npmdoc/node-npmdoc-gulp-livereload</tspan>
<tspan x="10" y="58">&gt; (set -e; export PORT=$(utility2 shServerPortRandom); utility2 test test.js)</tspan>
<tspan x="10" y="74"></tspan>
<tspan x="10" y="90"></tspan>
<tspan x="10" y="106">[MODE_BUILD=npmTest] - 2017-03-25T11:20:13Z - npm-testing /home/travis/build/npmdoc/node-npmdoc-\</tspan>
<tspan x="10" y="122">gulp-livereload</tspan>
<tspan x="10" y="138"></tspan>
<tspan x="10" y="154"></tspan>
<tspan x="10" y="170">covering $ /home/travis/.nvm/versions/node/v7.7.4/bin/node /home/travis/build/npmdoc/node-npmdoc\</tspan>
<tspan x="10" y="186">-gulp-livereload/test.js</tspan>
<tspan x="10" y="202">merging file:///home/travis/build/npmdoc/node-npmdoc-gulp-livereload/tmp/build/test-report.json \</tspan>
<tspan x="10" y="218">to test-report</tspan>
<tspan x="10" y="234">&gt; server listening on http-port 60174</tspan>
<tspan x="10" y="250">created apidoc file:///home/travis/build/npmdoc/node-npmdoc-gulp-livereload/tmp/build/apidoc.htm\</tspan>
<tspan x="10" y="266">l</tspan>
<tspan x="10" y="282"></tspan>
<tspan x="10" y="298"></tspan>
<tspan x="10" y="314">browserTest - created electron entry-page /home/travis/build/npmdoc/node-npmdoc-gulp-livereload/\</tspan>
<tspan x="10" y="330">tmp/electron.15b053200210.d5623186f8a04.html</tspan>
<tspan x="10" y="346"></tspan>
<tspan x="10" y="362">[node test-case 1 of 6 passed] - testCase_buildLib_default</tspan>
<tspan x="10" y="378">[node test-case 2 of 6 passed] - testCase_buildReadme_default</tspan>
<tspan x="10" y="394">[node test-case 3 of 6 passed] - testCase_buildTest_default</tspan>
<tspan x="10" y="410"></tspan>
<tspan x="10" y="426">browserTest - created electron entry-page /home/travis/build/npmdoc/node-npmdoc-gulp-livereload/\</tspan>
<tspan x="10" y="442">tmp/electron.15b0532006b0.5616eda14bd62.html</tspan>
<tspan x="10" y="458"></tspan>
<tspan x="10" y="474">(node:5053) DeprecationWarning: node --debug is deprecated. Please use node --inspect instead.</tspan>
<tspan x="10" y="490">Xlib:  extension "RANDR" missing on display ":99.0".</tspan>
<tspan x="10" y="506">Xlib:  extension "RANDR" missing on display ":99.0".</tspan>
<tspan x="10" y="522">&gt; server listening on http-port 33943</tspan>
<tspan x="10" y="538"></tspan>
<tspan x="10" y="554">/home/travis/build/npmdoc/node-npmdoc-gulp-livereload/node_modules/utility2/lib.utility2.sh.html\</tspan>
<tspan x="10" y="570">.js</tspan>
<tspan x="10" y="586"> #1 Line too long.</tspan>
<tspan x="10" y="602">    process.stdout.write('export npm_package_' + key.replace((/\W/g), '_') + '=' + JSON.stringif\</tspan>
<tspan x="10" y="618">y(value) + ';'); // Line 1445, Pos 116</tspan>
<tspan x="10" y="634"></tspan>
<tspan x="10" y="650">merging file:///home/travis/build/npmdoc/node-npmdoc-gulp-livereload/tmp/build/test-report.json \</tspan>
<tspan x="10" y="666">to test-report</tspan>
<tspan x="10" y="682">Xlib:  extension "RANDR" missing on display ":99.0".</tspan>
<tspan x="10" y="698">[5084:0325/112015:WARNING:audio_manager.cc(314)] Multiple instances of AudioManager detected</tspan>
<tspan x="10" y="714">[5084:0325/112015:WARNING:audio_manager.cc(275)] Multiple instances of AudioManager detected</tspan>
<tspan x="10" y="730">[5109:0325/112015:ERROR:sandbox_linux.cc(343)] InitializeSandbox() called with multiple threads \</tspan>
<tspan x="10" y="746">in process gpu-process. </tspan>
<tspan x="10" y="762"></tspan>
<tspan x="10" y="778">/home/travis/build/npmdoc/node-npmdoc-gulp-livereload/node_modules/utility2/lib.utility2.sh.html\</tspan>
<tspan x="10" y="794">.js</tspan>
<tspan x="10" y="810"> #1 Line too long.</tspan>
<tspan x="10" y="826">    process.stdout.write('export npm_package_' + key.replace((/\W/g), '_') + '=' + JSON.stringif\</tspan>
<tspan x="10" y="842">y(value) + ';'); // Line 1445, Pos 116</tspan>
<tspan x="10" y="858"></tspan>
<tspan x="10" y="874">merging file:///home/travis/build/npmdoc/node-npmdoc-gulp-livereload/tmp/build/test-report.json \</tspan>
<tspan x="10" y="890">to test-report</tspan>
<tspan x="10" y="906">Xlib:  extension "RANDR" missing on display ":99.0".</tspan>
<tspan x="10" y="922">[5088:0325/112015:WARNING:audio_manager.cc(314)] Multiple instances of AudioManager detected</tspan>
<tspan x="10" y="938">[5088:0325/112015:WARNING:audio_manager.cc(275)] Multiple instances of AudioManager detected</tspan>
<tspan x="10" y="954">[5141:0325/112016:ERROR:sandbox_linux.cc(343)] InitializeSandbox() called with multiple threads \</tspan>
<tspan x="10" y="970">in process gpu-process. </tspan>
<tspan x="10" y="986">[5088:0325/112016:ERROR:browser_gpu_channel_host_factory.cc(131)] Failed to create channel.</tspan>
<tspan x="10" y="1002"></tspan>
<tspan x="10" y="1018">browserTest - opened url file:///home/travis/build/npmdoc/node-npmdoc-gulp-livereload/tmp/build/\</tspan>
<tspan x="10" y="1034">apidoc.html</tspan>
<tspan x="10" y="1050"></tspan>
<tspan x="10" y="1066"></tspan>
<tspan x="10" y="1082">browserTest - opened url http://127.0.0.1:60174?modeTest=1</tspan>
<tspan x="10" y="1098"></tspan>
<tspan x="10" y="1114">[5088:0325/112017:INFO:CONSOLE(203)] "----------|-----------|-----------|-----------|-----------\</tspan>
<tspan x="10" y="1130">|</tspan>
<tspan x="10" y="1146">File      |   % Stmts |% Branches |   % Funcs |   % Lines |</tspan>
<tspan x="10" y="1162">----------|-----------|-----------|-----------|-----------|</tspan>
<tspan x="10" y="1178">----------|-----------|-----------|-----------|-----------|</tspan>
<tspan x="10" y="1194">All files |       100 |       100 |       100 |       100 |</tspan>
<tspan x="10" y="1210">----------|-----------|-----------|-----------|-----------|</tspan>
<tspan x="10" y="1226">", source: file:///home/travis/build/npmdoc/node-npmdoc-gulp-livereload/tmp/electron.15b0532006b\</tspan>
<tspan x="10" y="1242">0.5616eda14bd62.html (203)</tspan>
<tspan x="10" y="1258">[5088:0325/112017:INFO:CONSOLE(203)] "created coverage file:///tmp/build/coverage.html/index.htm\</tspan>
<tspan x="10" y="1274">l", source: file:///home/travis/build/npmdoc/node-npmdoc-gulp-livereload/tmp/electron.15b0532006\</tspan>
<tspan x="10" y="1290">b0.5616eda14bd62.html (203)</tspan>
<tspan x="10" y="1306">[node test-case 4 of 6 passed] - testCase_buildApp_default</tspan>
<tspan x="10" y="1322"></tspan>
<tspan x="10" y="1338">browserTest - created screen-capture file:///home/travis/build/npmdoc/node-npmdoc-gulp-livereloa\</tspan>
<tspan x="10" y="1354">d/tmp/build/screen-capture.npmTest.browser._2Fhome_2Ftravis_2Fbuild_2Fnpmdoc_2Fnode-npmdoc-gulp-\</tspan>
<tspan x="10" y="1370">livereload_2Ftmp_2Fbuild_2Fapidoc.html.png</tspan>
<tspan x="10" y="1386"></tspan>
<tspan x="10" y="1402"></tspan>
<tspan x="10" y="1418">browserTest - exit-code 0 - file:///home/travis/build/npmdoc/node-npmdoc-gulp-livereload/tmp/bui\</tspan>
<tspan x="10" y="1434">ld/apidoc.html</tspan>
<tspan x="10" y="1450"></tspan>
<tspan x="10" y="1466">[node test-case 5 of 6 passed] - testCase_buildApidoc_default</tspan>
<tspan x="10" y="1482"></tspan>
<tspan x="10" y="1498">browserTest - created screen-capture file:///home/travis/build/npmdoc/node-npmdoc-gulp-livereloa\</tspan>
<tspan x="10" y="1514">d/tmp/build/screen-capture.npmTest.browser..png</tspan>
<tspan x="10" y="1530"></tspan>
<tspan x="10" y="1546"></tspan>
<tspan x="10" y="1562">browserTest - exit-code 0 - http://127.0.0.1:60174?modeTest=1</tspan>
<tspan x="10" y="1578"></tspan>
<tspan x="10" y="1594"></tspan>
<tspan x="10" y="1610">browserTest - merged coverage from /home/travis/build/npmdoc/node-npmdoc-gulp-livereload/tmp/cov\</tspan>
<tspan x="10" y="1626">erage.npmTest.browser.%2F.json</tspan>
<tspan x="10" y="1642"></tspan>
<tspan x="10" y="1658"></tspan>
<tspan x="10" y="1674">browserTest - merging test-report from /home/travis/build/npmdoc/node-npmdoc-gulp-livereload/tmp\</tspan>
<tspan x="10" y="1690">/test-report.npmTest.browser.%2F.json</tspan>
<tspan x="10" y="1706"></tspan>
<tspan x="10" y="1722">[node test-case 6 of 6 passed] - testCase_webpage_default</tspan>
<tspan x="10" y="1738">------------------------------------|-----------|-----------|-----------|-----------|</tspan>
<tspan x="10" y="1754">File                                |   % Stmts |% Branches |   % Funcs |   % Lines |</tspan>
<tspan x="10" y="1770">------------------------------------|-----------|-----------|-----------|-----------|</tspan>
<tspan x="10" y="1786">   node-npmdoc-gulp-livereload/     |       100 |       100 |       100 |       100 |</tspan>
<tspan x="10" y="1802">      example.js                    |       100 |       100 |       100 |       100 |</tspan>
<tspan x="10" y="1818">      lib.npmdoc_gulp_livereload.js |       100 |       100 |       100 |       100 |</tspan>
<tspan x="10" y="1834">      test.js                       |       100 |       100 |       100 |       100 |</tspan>
<tspan x="10" y="1850">------------------------------------|-----------|-----------|-----------|-----------|</tspan>
<tspan x="10" y="1866">All files                           |       100 |       100 |       100 |       100 |</tspan>
<tspan x="10" y="1882">------------------------------------|-----------|-----------|-----------|-----------|</tspan>
<tspan x="10" y="1898"></tspan>
<tspan x="10" y="1914">created coverage file:///home/travis/build/npmdoc/node-npmdoc-gulp-livereload/tmp/build/coverage\</tspan>
<tspan x="10" y="1930">.html/index.html</tspan>
<tspan x="10" y="1946"></tspan>
<tspan x="10" y="1962">/home/travis/build/npmdoc/node-npmdoc-gulp-livereload/node_modules/utility2/lib.utility2.sh.html\</tspan>
<tspan x="10" y="1978">.js</tspan>
<tspan x="10" y="1994"> #1 Line too long.</tspan>
<tspan x="10" y="2010">    process.stdout.write('export npm_package_' + key.replace((/\W/g), '_') + '=' + JSON.stringif\</tspan>
<tspan x="10" y="2026">y(value) + ';'); // Line 1445, Pos 116</tspan>
<tspan x="10" y="2042"></tspan>
<tspan x="10" y="2058">merging file:///home/travis/build/npmdoc/node-npmdoc-gulp-livereload/tmp/build/test-report.json \</tspan>
<tspan x="10" y="2074">to test-report</tspan>
<tspan x="10" y="2090"></tspan>
<tspan x="10" y="2106">-------------------------------------------------------</tspan>
<tspan x="10" y="2122">| test-report - buildNpmdoc - node - linux v7.7.4 - 2017-03-25T11:20:03.915Z</tspan>
<tspan x="10" y="2138">|   16285 ms            0 failed        6 passed      |</tspan>
<tspan x="10" y="2154">-------------------------------------------------------</tspan>
<tspan x="10" y="2170"></tspan>
<tspan x="10" y="2186">created test-report file:///home/travis/build/npmdoc/node-npmdoc-gulp-livereload/tmp/build/test-\</tspan>
<tspan x="10" y="2202">report.html</tspan>
<tspan x="10" y="2218"></tspan>
<tspan x="10" y="2234"></tspan>
<tspan x="10" y="2250">npmTest - 0 failed tests</tspan>
<tspan x="10" y="2266"></tspan>
<tspan x="10" y="2282"></tspan>
<tspan x="10" y="2298">[MODE_BUILD=npmTest] - 2017-03-25T11:20:23Z - EXIT_CODE - 0</tspan>
</text>
</svg>
