<svg height="1998" width="720" xmlns="http://www.w3.org/2000/svg">
<rect height="1998" fill="#555" width="720"></rect>
<text fill="#7f7" font-family="Courier New" font-size="12" xml:space="preserve">
<tspan x="10" y="26"></tspan>
<tspan x="10" y="42">&gt; npmdoc-gulp-livereload@0.0.3 test /home/travis/build/npmdoc/node-npmdoc-gulp-livereload</tspan>
<tspan x="10" y="58">&gt; (set -e; export PORT=$(utility2 shServerPortRandom); utility2 test test.js)</tspan>
<tspan x="10" y="74"></tspan>
<tspan x="10" y="90"></tspan>
<tspan x="10" y="106">[MODE_BUILD=npmTest] - 2017-03-26T10:29:19Z - npm-testing /home/travis/build/npmdoc/node-npmdoc-\</tspan>
<tspan x="10" y="122">gulp-livereload</tspan>
<tspan x="10" y="138"></tspan>
<tspan x="10" y="154"></tspan>
<tspan x="10" y="170">covering $ /home/travis/.nvm/versions/node/v7.7.4/bin/node /home/travis/build/npmdoc/node-npmdoc\</tspan>
<tspan x="10" y="186">-gulp-livereload/test.js</tspan>
<tspan x="10" y="202">merging file:///home/travis/build/npmdoc/node-npmdoc-gulp-livereload/tmp/build/test-report.json \</tspan>
<tspan x="10" y="218">to test-report</tspan>
<tspan x="10" y="234">&gt; server listening on http-port 49628</tspan>
<tspan x="10" y="250">created apidoc file:///home/travis/build/npmdoc/node-npmdoc-gulp-livereload/tmp/build/apidoc.htm\</tspan>
<tspan x="10" y="266">l</tspan>
<tspan x="10" y="282"></tspan>
<tspan x="10" y="298"></tspan>
<tspan x="10" y="314">browserTest - created electron entry-page /home/travis/build/npmdoc/node-npmdoc-gulp-livereload/\</tspan>
<tspan x="10" y="330">tmp/electron.15b0a29c1130.24ae6ea0bd1bc.html</tspan>
<tspan x="10" y="346"></tspan>
<tspan x="10" y="362">Xlib:  extension "RANDR" missing on display ":99.0".</tspan>
<tspan x="10" y="378">&gt; server listening on http-port 38231</tspan>
<tspan x="10" y="394">[node test-case 1 of 6 passed] - testCase_buildLib_default</tspan>
<tspan x="10" y="410">[node test-case 2 of 6 passed] - testCase_buildReadme_default</tspan>
<tspan x="10" y="426">[node test-case 3 of 6 passed] - testCase_buildTest_default</tspan>
<tspan x="10" y="442"></tspan>
<tspan x="10" y="458">browserTest - created electron entry-page /home/travis/build/npmdoc/node-npmdoc-gulp-livereload/\</tspan>
<tspan x="10" y="474">tmp/electron.15b0a29c2ff0.e6342de0efe5a.html</tspan>
<tspan x="10" y="490"></tspan>
<tspan x="10" y="506">(node:4946) DeprecationWarning: node --debug is deprecated. Please use node --inspect instead.</tspan>
<tspan x="10" y="522">merging file:///home/travis/build/npmdoc/node-npmdoc-gulp-livereload/tmp/build/test-report.json \</tspan>
<tspan x="10" y="538">to test-report</tspan>
<tspan x="10" y="554">Xlib:  extension "RANDR" missing on display ":99.0".</tspan>
<tspan x="10" y="570">[4960:0326/102920:WARNING:audio_manager.cc(314)] Multiple instances of AudioManager detected</tspan>
<tspan x="10" y="586">[4960:0326/102920:WARNING:audio_manager.cc(275)] Multiple instances of AudioManager detected</tspan>
<tspan x="10" y="602">[5004:0326/102920:ERROR:sandbox_linux.cc(343)] InitializeSandbox() called with multiple threads \</tspan>
<tspan x="10" y="618">in process gpu-process. </tspan>
<tspan x="10" y="634">[4960:0326/102920:ERROR:browser_gpu_channel_host_factory.cc(131)] Failed to create channel.</tspan>
<tspan x="10" y="650">Xlib:  extension "RANDR" missing on display ":99.0".</tspan>
<tspan x="10" y="666"></tspan>
<tspan x="10" y="682">browserTest - opened url file:///home/travis/build/npmdoc/node-npmdoc-gulp-livereload/tmp/build/\</tspan>
<tspan x="10" y="698">apidoc.html</tspan>
<tspan x="10" y="714"></tspan>
<tspan x="10" y="730">merging file:///home/travis/build/npmdoc/node-npmdoc-gulp-livereload/tmp/build/test-report.json \</tspan>
<tspan x="10" y="746">to test-report</tspan>
<tspan x="10" y="762">Xlib:  extension "RANDR" missing on display ":99.0".</tspan>
<tspan x="10" y="778">[5011:0326/102921:WARNING:audio_manager.cc(314)] Multiple instances of AudioManager detected</tspan>
<tspan x="10" y="794">[5011:0326/102921:WARNING:audio_manager.cc(275)] Multiple instances of AudioManager detected</tspan>
<tspan x="10" y="810">[5060:0326/102921:ERROR:sandbox_linux.cc(343)] InitializeSandbox() called with multiple threads \</tspan>
<tspan x="10" y="826">in process gpu-process. </tspan>
<tspan x="10" y="842">[5011:0326/102921:ERROR:browser_gpu_channel_host_factory.cc(131)] Failed to create channel.</tspan>
<tspan x="10" y="858"></tspan>
<tspan x="10" y="874">browserTest - opened url http://127.0.0.1:49628?modeTest=1</tspan>
<tspan x="10" y="890"></tspan>
<tspan x="10" y="906">[5011:0326/102923:INFO:CONSOLE(203)] "----------|-----------|-----------|-----------|-----------\</tspan>
<tspan x="10" y="922">|</tspan>
<tspan x="10" y="938">File      |   % Stmts |% Branches |   % Funcs |   % Lines |</tspan>
<tspan x="10" y="954">----------|-----------|-----------|-----------|-----------|</tspan>
<tspan x="10" y="970">----------|-----------|-----------|-----------|-----------|</tspan>
<tspan x="10" y="986">All files |       100 |       100 |       100 |       100 |</tspan>
<tspan x="10" y="1002">----------|-----------|-----------|-----------|-----------|</tspan>
<tspan x="10" y="1018">", source: file:///home/travis/build/npmdoc/node-npmdoc-gulp-livereload/tmp/electron.15b0a29c2ff\</tspan>
<tspan x="10" y="1034">0.e6342de0efe5a.html (203)</tspan>
<tspan x="10" y="1050">[5011:0326/102923:INFO:CONSOLE(203)] "created coverage file:///tmp/build/coverage.html/index.htm\</tspan>
<tspan x="10" y="1066">l", source: file:///home/travis/build/npmdoc/node-npmdoc-gulp-livereload/tmp/electron.15b0a29c2f\</tspan>
<tspan x="10" y="1082">f0.e6342de0efe5a.html (203)</tspan>
<tspan x="10" y="1098">[node test-case 4 of 6 passed] - testCase_buildApp_default</tspan>
<tspan x="10" y="1114"></tspan>
<tspan x="10" y="1130">browserTest - created screen-capture file:///home/travis/build/npmdoc/node-npmdoc-gulp-livereloa\</tspan>
<tspan x="10" y="1146">d/tmp/build/screen-capture.npmTest.browser._2Fhome_2Ftravis_2Fbuild_2Fnpmdoc_2Fnode-npmdoc-gulp-\</tspan>
<tspan x="10" y="1162">livereload_2Ftmp_2Fbuild_2Fapidoc.html.png</tspan>
<tspan x="10" y="1178"></tspan>
<tspan x="10" y="1194"></tspan>
<tspan x="10" y="1210">browserTest - exit-code 0 - file:///home/travis/build/npmdoc/node-npmdoc-gulp-livereload/tmp/bui\</tspan>
<tspan x="10" y="1226">ld/apidoc.html</tspan>
<tspan x="10" y="1242"></tspan>
<tspan x="10" y="1258">[node test-case 5 of 6 passed] - testCase_buildApidoc_default</tspan>
<tspan x="10" y="1274"></tspan>
<tspan x="10" y="1290">browserTest - created screen-capture file:///home/travis/build/npmdoc/node-npmdoc-gulp-livereloa\</tspan>
<tspan x="10" y="1306">d/tmp/build/screen-capture.npmTest.browser..png</tspan>
<tspan x="10" y="1322"></tspan>
<tspan x="10" y="1338"></tspan>
<tspan x="10" y="1354">browserTest - exit-code 0 - http://127.0.0.1:49628?modeTest=1</tspan>
<tspan x="10" y="1370"></tspan>
<tspan x="10" y="1386"></tspan>
<tspan x="10" y="1402">browserTest - merged coverage from /home/travis/build/npmdoc/node-npmdoc-gulp-livereload/tmp/cov\</tspan>
<tspan x="10" y="1418">erage.npmTest.browser.%2F.json</tspan>
<tspan x="10" y="1434"></tspan>
<tspan x="10" y="1450"></tspan>
<tspan x="10" y="1466">browserTest - merging test-report from /home/travis/build/npmdoc/node-npmdoc-gulp-livereload/tmp\</tspan>
<tspan x="10" y="1482">/test-report.npmTest.browser.%2F.json</tspan>
<tspan x="10" y="1498"></tspan>
<tspan x="10" y="1514">[node test-case 6 of 6 passed] - testCase_webpage_default</tspan>
<tspan x="10" y="1530">------------------------------------|-----------|-----------|-----------|-----------|</tspan>
<tspan x="10" y="1546">File                                |   % Stmts |% Branches |   % Funcs |   % Lines |</tspan>
<tspan x="10" y="1562">------------------------------------|-----------|-----------|-----------|-----------|</tspan>
<tspan x="10" y="1578">   node-npmdoc-gulp-livereload/     |       100 |       100 |       100 |       100 |</tspan>
<tspan x="10" y="1594">      example.js                    |       100 |       100 |       100 |       100 |</tspan>
<tspan x="10" y="1610">      lib.npmdoc_gulp_livereload.js |       100 |       100 |       100 |       100 |</tspan>
<tspan x="10" y="1626">      test.js                       |       100 |       100 |       100 |       100 |</tspan>
<tspan x="10" y="1642">------------------------------------|-----------|-----------|-----------|-----------|</tspan>
<tspan x="10" y="1658">All files                           |       100 |       100 |       100 |       100 |</tspan>
<tspan x="10" y="1674">------------------------------------|-----------|-----------|-----------|-----------|</tspan>
<tspan x="10" y="1690"></tspan>
<tspan x="10" y="1706">created coverage file:///home/travis/build/npmdoc/node-npmdoc-gulp-livereload/tmp/build/coverage\</tspan>
<tspan x="10" y="1722">.html/index.html</tspan>
<tspan x="10" y="1738">merging file:///home/travis/build/npmdoc/node-npmdoc-gulp-livereload/tmp/build/test-report.json \</tspan>
<tspan x="10" y="1754">to test-report</tspan>
<tspan x="10" y="1770"></tspan>
<tspan x="10" y="1786">-------------------------------------------------------</tspan>
<tspan x="10" y="1802">| test-report - buildNpmdoc - node - linux v7.7.4 - 2017-03-26T10:28:51.529Z</tspan>
<tspan x="10" y="1818">|   34144 ms            0 failed        6 passed      |</tspan>
<tspan x="10" y="1834">-------------------------------------------------------</tspan>
<tspan x="10" y="1850"></tspan>
<tspan x="10" y="1866">created test-report file:///home/travis/build/npmdoc/node-npmdoc-gulp-livereload/tmp/build/test-\</tspan>
<tspan x="10" y="1882">report.html</tspan>
<tspan x="10" y="1898"></tspan>
<tspan x="10" y="1914"></tspan>
<tspan x="10" y="1930">npmTest - 0 failed tests</tspan>
<tspan x="10" y="1946"></tspan>
<tspan x="10" y="1962"></tspan>
<tspan x="10" y="1978">[MODE_BUILD=npmTest] - 2017-03-26T10:29:28Z - EXIT_CODE - 0</tspan>
</text>
</svg>
